<svg xmlns="http://www.w3.org/2000/svg" viewBox="0 0 131.64 131.64"><defs><style>.cls-1{fill:#123862;}</style></defs><g id="Layer_2" data-name="Layer 2"><g id="Layer_1-2" data-name="Layer 1"><g id="Bold-L"><path class="cls-1" d="M65.82,131.64a66.11,66.11,0,0,0,65.82-65.82C131.64,29.74,101.9,0,65.77,0S0,29.74,0,65.82A66.14,66.14,0,0,0,65.82,131.64ZM31.88,59a27.35,27.35,0,1,1,54.69,0,26.39,26.39,0,0,1-4.1,14.12l15,15a6.89,6.89,0,0,1,2,4.89,6.57,6.57,0,0,1-6.64,6.83,7.13,7.13,0,0,1-5.27-2.24l-15-15a26.34,26.34,0,0,1-13.43,3.71A27.53,27.53,0,0,1,31.88,59Zm10.31,0a17,17,0,1,0,17.09-17A17.13,17.13,0,0,0,42.19,59Z"/></g></g></g></svg>